<svg id="parking" xmlns="http://www.w3.org/2000/svg" width="55.773" height="38.672" viewBox="0 0 55.773 38.672">
  <path id="Path_77" data-name="Path 77" d="M24.121,11.8a.871.871,0,0,0-.871.871V15.9a.871.871,0,0,0,1.743,0V12.675a.871.871,0,0,0-.871-.875Z" transform="translate(3.765 -11.8)" fill="#ff0d80"/>
  <path id="Path_78" data-name="Path 78" d="M24.121,17.6a.871.871,0,0,0-.871.871V21.7a.871.871,0,1,0,1.743,0v-3.23a.871.871,0,0,0-.871-.874Z" transform="translate(3.765 -10.861)" fill="#ff0d80"/>
  <path id="Path_79" data-name="Path 79" d="M24.121,23.4a.871.871,0,0,0-.871.871v3.235a.871.871,0,1,0,1.743,0V24.27a.871.871,0,0,0-.871-.87Z" transform="translate(3.765 -9.921)" fill="#ff0d80"/>
  <path id="Path_80" data-name="Path 80" d="M24.121,29.2a.871.871,0,0,0-.871.871V33.3a.871.871,0,1,0,1.743,0V30.069A.871.871,0,0,0,24.121,29.2Z" transform="translate(3.765 -8.982)" fill="#ff0d80"/>
  <path id="Path_81" data-name="Path 81" d="M24.121,35a.871.871,0,0,0-.871.871V39.1a.871.871,0,1,0,1.743,0V35.868A.871.871,0,0,0,24.121,35Z" transform="translate(3.765 -8.043)" fill="#ff0d80"/>
  <path id="Path_82" data-name="Path 82" d="M24.121,40.8a.871.871,0,0,0-.871.871V44.9a.871.871,0,1,0,1.743,0V41.666a.871.871,0,0,0-.871-.866Z" transform="translate(3.765 -7.104)" fill="#ff0d80"/>
  <path id="Path_83" data-name="Path 83" d="M47.371,11.8a.871.871,0,0,0-.871.871V15.9a.871.871,0,1,0,1.743,0V12.675a.871.871,0,0,0-.871-.875Z" transform="translate(7.531 -11.8)" fill="#ff0d80"/>
  <path id="Path_84" data-name="Path 84" d="M47.371,17.6a.871.871,0,0,0-.871.871V21.7a.871.871,0,1,0,1.743,0v-3.23a.871.871,0,0,0-.871-.874Z" transform="translate(7.531 -10.861)" fill="#ff0d80"/>
  <path id="Path_85" data-name="Path 85" d="M47.371,23.4a.871.871,0,0,0-.871.871v3.235a.871.871,0,1,0,1.743,0V24.27a.871.871,0,0,0-.871-.87Z" transform="translate(7.531 -9.921)" fill="#ff0d80"/>
  <path id="Path_86" data-name="Path 86" d="M47.371,29.2a.871.871,0,0,0-.871.871V33.3a.871.871,0,1,0,1.743,0V30.069A.871.871,0,0,0,47.371,29.2Z" transform="translate(7.531 -8.982)" fill="#ff0d80"/>
  <path id="Path_87" data-name="Path 87" d="M47.371,35a.871.871,0,0,0-.871.871V39.1a.871.871,0,1,0,1.743,0V35.868A.871.871,0,0,0,47.371,35Z" transform="translate(7.531 -8.043)" fill="#ff0d80"/>
  <path id="Path_88" data-name="Path 88" d="M47.371,40.8a.871.871,0,0,0-.871.871V44.9a.871.871,0,1,0,1.743,0V41.666a.871.871,0,0,0-.871-.866Z" transform="translate(7.531 -7.104)" fill="#ff0d80"/>
  <path id="Path_89" data-name="Path 89" d="M.871,11.8A.871.871,0,0,0,0,12.671V15.9a.871.871,0,0,0,1.743,0V12.675A.871.871,0,0,0,.871,11.8Z" transform="translate(0 -11.8)" fill="#ff0d80"/>
  <path id="Path_90" data-name="Path 90" d="M.871,17.6A.871.871,0,0,0,0,18.471V21.7a.871.871,0,1,0,1.743,0v-3.23A.871.871,0,0,0,.871,17.6Z" transform="translate(0 -10.861)" fill="#ff0d80"/>
  <path id="Path_91" data-name="Path 91" d="M.871,23.4A.871.871,0,0,0,0,24.271v3.235a.871.871,0,1,0,1.743,0V24.27a.871.871,0,0,0-.871-.87Z" transform="translate(0 -9.921)" fill="#ff0d80"/>
  <path id="Path_92" data-name="Path 92" d="M.871,29.2A.871.871,0,0,0,0,30.071V33.3a.871.871,0,1,0,1.743,0V30.069A.871.871,0,0,0,.871,29.2Z" transform="translate(0 -8.982)" fill="#ff0d80"/>
  <path id="Path_93" data-name="Path 93" d="M.871,35A.871.871,0,0,0,0,35.871V39.1a.871.871,0,1,0,1.743,0V35.868A.871.871,0,0,0,.871,35Z" transform="translate(0 -8.043)" fill="#ff0d80"/>
  <path id="Path_94" data-name="Path 94" d="M.871,40.8A.871.871,0,0,0,0,41.671V44.9a.871.871,0,1,0,1.743,0V41.666A.871.871,0,0,0,.871,40.8Z" transform="translate(0 -7.104)" fill="#ff0d80"/>
  <path id="Path_95" data-name="Path 95" d="M22.8,34.653l-1.478.937V20.8c0-1.859-1.933-3.37-4.318-3.37H10.44c-2.5,0-4.532,1.58-4.532,3.529v14.62l-1.47-.93a.871.871,0,0,0-.93,1.472l2.4,1.52v3.486c0,2.091,2.172,3.78,4.849,3.78h5.706c2.672,0,4.85-1.692,4.85-3.78V37.6l2.413-1.473a.871.871,0,0,0-.93-1.472ZM8.555,21.448a1.652,1.652,0,0,1,1.253-1.416,12.461,12.461,0,0,1,3.809-.551,13.046,13.046,0,0,1,3.924.573,1.644,1.644,0,0,1,1.278,1.471v3.212a26.1,26.1,0,0,0-5.25-.581,23.123,23.123,0,0,0-5.015.581Zm9.944,17.6c-.8.622-1.975,1.378-4.88,1.378-3.033,0-4.146-.874-4.913-1.548a1.511,1.511,0,0,1-.54-1.38l.26-3.289a35.754,35.754,0,0,0,5.165.476,36.985,36.985,0,0,0,5.229-.476l.3,3.37a1.526,1.526,0,0,1-.622,1.47Z" transform="translate(0.508 -10.887)" fill="#0056bf"/>
  <path id="Path_98" data-name="Path 98" d="M46.674,34.653l-1.479.937V20.8c0-1.859-1.932-3.37-4.317-3.37H34.316c-2.5,0-4.532,1.58-4.532,3.529v14.62l-1.47-.93a.871.871,0,1,0-.93,1.472l2.4,1.52v3.486c0,2.091,2.171,3.78,4.849,3.78h5.706c2.672,0,4.849-1.692,4.849-3.78V37.6L47.6,36.125a.871.871,0,1,0-.93-1.472Zm-14.245-13.2a1.651,1.651,0,0,1,1.256-1.416,12.461,12.461,0,0,1,3.809-.551,13.052,13.052,0,0,1,3.924.573A1.645,1.645,0,0,1,42.7,21.525v3.212a26.1,26.1,0,0,0-5.251-.581,23.123,23.123,0,0,0-5.014.581Zm9.944,17.6c-.8.622-1.975,1.378-4.88,1.378-3.032,0-4.146-.874-4.912-1.548a1.51,1.51,0,0,1-.538-1.386L32.3,34.2a35.78,35.78,0,0,0,5.166.476A37.007,37.007,0,0,0,42.7,34.2l.3,3.37A1.526,1.526,0,0,1,42.372,39.046Z" transform="translate(4.364 -10.887)" fill="#0056bf"/>
</svg>
