<svg id="question" xmlns="http://www.w3.org/2000/svg" width="71.384" height="81.552" viewBox="0 0 71.384 81.552">
  <path id="Path_4566" data-name="Path 4566" d="M103.3,35.692A35.692,35.692,0,1,0,57.807,70.019,5.367,5.367,0,0,1,61,72.489l4.532,7.86a2.4,2.4,0,0,0,4.163,0l4.532-7.861a5.364,5.364,0,0,1,3.187-2.47A35.706,35.706,0,0,0,103.3,35.692Z" transform="translate(-31.918 0)" fill="#2f88fa"/>
  <path id="Path_4567" data-name="Path 4567" d="M235.692,0q-1.791.013-3.539.2a35.7,35.7,0,0,1,6,69.816,5.364,5.364,0,0,0-3.187,2.47l-2.815,4.883,1.717,2.978a2.4,2.4,0,0,0,4.163,0l4.532-7.861a5.364,5.364,0,0,1,3.187-2.47A35.7,35.7,0,0,0,235.692,0Z" transform="translate(-200.258 0)" fill="#5badfa"/>
  <path id="Path_4568" data-name="Path 4568" d="M238.784,314.793H236.72a2.425,2.425,0,0,1-2.425-2.426v-1.662a2.425,2.425,0,0,1,2.425-2.425h2.064a2.425,2.425,0,0,1,2.425,2.425v1.662A2.425,2.425,0,0,1,238.784,314.793Z" transform="translate(-202.06 -259.177)" fill="#fff"/>
  <g id="Group_3215" data-name="Group 3215" transform="translate(24.166 14.637)">
    <path id="Path_4570" data-name="Path 4570" d="M195.162,121.909a3.177,3.177,0,0,1-3.177-3.177V111.77a3.177,3.177,0,0,1,3.177-3.177,5.172,5.172,0,1,0-5.172-5.172,3.177,3.177,0,1,1-6.354,0,11.526,11.526,0,1,1,14.925,11.015.315.315,0,0,0-.222.3v4A3.177,3.177,0,0,1,195.162,121.909Z" transform="translate(-183.636 -91.894)" fill="#fff"/>
  </g>
</svg>
